<svg width="24" height="24" viewBox="0 0 24 24" fill="none" xmlns="http://www.w3.org/2000/svg">
<g clip-path="url(#clip0_2_20457)">
<path d="M17.3586 14.6672C17.9711 14.3531 18.8211 14.0812 18.8211 14.0812C18.8211 14.0812 16.4023 14.4094 13.9961 14.5594C11.0523 14.7422 7.88984 14.7797 6.30234 14.6203C2.54609 14.2453 8.36484 13.2094 8.36484 13.2094C8.36484 13.2094 6.10859 13.0969 3.32734 14.1C0.0460923 15.2906 11.4523 15.8344 17.3586 14.6672ZM12.0211 13.1625C10.8336 11.1609 6.82734 9.40312 12.0211 6.32812C18.4998 2.49375 15.1773 0 15.1773 0C16.5211 3.96094 10.4523 5.16094 8.25859 7.62188C6.76484 9.30469 8.98984 11.1094 12.0211 13.1625ZM19.1836 4.90312C19.1898 4.90312 8.23359 6.95625 13.4648 11.475C15.0086 12.8063 13.0586 14.0062 13.0586 14.0062C13.0586 14.0062 16.9773 12.4875 15.1773 10.5891C13.4961 8.81719 12.2086 7.93594 19.1836 4.90312ZM18.8023 17.5828C18.7682 17.6275 18.7261 17.6685 18.6773 17.7047C26.6961 16.125 23.7461 12.1312 19.9148 13.1437C19.7079 13.2008 19.5291 13.3038 19.4023 13.4391C19.6261 13.3783 19.856 13.3313 20.0898 13.2984C22.0273 12.9938 24.8086 15.2438 18.8023 17.5828ZM21.7498 20.5031C21.7498 20.5031 22.6561 21.0609 20.7561 21.4969C17.1373 22.3172 5.70609 22.5656 2.53109 21.5297C1.38734 21.1594 3.53109 20.6391 4.20609 20.5312C4.90609 20.4188 5.31234 20.4375 5.31234 20.4375C4.04359 19.7672 -2.89391 21.7547 1.78734 22.3219C14.5523 23.8781 25.0623 21.6234 21.7498 20.5031ZM7.77734 18.5625C2.85859 19.5938 10.7711 21.7219 17.0336 19.7109C16.4228 19.533 15.8332 19.3166 15.2711 19.0641C12.4773 19.4625 11.1836 19.4906 8.64609 19.275C6.55234 19.0969 7.77734 18.5625 7.77734 18.5625ZM19.0148 23.1188C14.0961 23.8125 8.02734 23.7328 4.43359 23.2875C4.43359 23.2828 5.17109 23.7422 8.95859 23.925C14.7211 24.2016 23.5711 23.7703 23.7773 21.7266C23.7773 21.7266 23.3773 22.5 19.0148 23.1188ZM16.2898 16.5469C12.5898 17.0812 10.4461 17.0672 7.73984 16.8563C5.64609 16.6922 7.01484 15.9328 7.01484 15.9328C1.58984 17.2828 10.0273 18.8109 17.6086 17.1469C17.1186 17.0171 16.6696 16.8128 16.2898 16.5469Z" fill="black"/>
</g>
<defs>
<clipPath id="clip0_2_20457">
<rect width="24" height="24" fill="white"/>
</clipPath>
</defs>
</svg>
